<?xml version="1.0" encoding="utf-8" ?>
<svg baseProfile="full" height="106mm" version="1.1" viewBox="0 0 744.094470 375.590540" width="210mm" xmlns="http://www.w3.org/2000/svg" xmlns:ev="http://www.w3.org/2001/xml-events" xmlns:xlink="http://www.w3.org/1999/xlink"><defs /><rect fill="white" height="100%" width="100%" x="0" y="0" /><g><text font-family="Arial,Helvetica" font-size="12" font-weight="bold" x="17.71654" y="38.97638">Récépissé</text><text font-family="Arial,Helvetica" font-size="8" font-weight="bold" x="17.71654" y="56.69291">Compte / Payable à</text><text font-family="Arial,Helvetica" font-size="10" x="17.71654" y="69.09449">CH11 8080 8006 8235 9023 0</text><text font-family="Arial,Helvetica" font-size="10" x="17.71654" y="81.49606">Groupe Scout de l'Abbaye</text><text font-family="Arial,Helvetica" font-size="10" x="17.71654" y="93.89764">Charcottet 10</text><text font-family="Arial,Helvetica" font-size="10" x="17.71654" y="106.29921">CH-2022 Bevaix</text><text font-family="Arial,Helvetica" font-size="8" font-weight="bold" x="17.71654" y="122.24409">Payable par (nom/adresse)</text><g><line stroke="black" stroke-linecap="square" stroke-width="0.26mm" x1="17.71654" x2="17.71654" y1="134.64567" y2="141.73228" /><line stroke="black" stroke-linecap="square" stroke-width="0.26mm" x1="17.71654" x2="28.34646" y1="134.64567" y2="134.64567" /><line stroke="black" stroke-linecap="square" stroke-width="0.26mm" x1="17.71654" x2="17.71654" y1="223.22834" y2="216.14173" /><line stroke="black" stroke-linecap="square" stroke-width="0.26mm" x1="17.71654" x2="28.34646" y1="223.22834" y2="223.22834" /><line stroke="black" stroke-linecap="square" stroke-width="0.26mm" x1="191.33858" x2="201.9685" y1="134.64567" y2="134.64567" /><line stroke="black" stroke-linecap="square" stroke-width="0.26mm" x1="201.9685" x2="201.9685" y1="134.64567" y2="141.73228" /><line stroke="black" stroke-linecap="square" stroke-width="0.26mm" x1="191.33858" x2="201.9685" y1="223.22834" y2="223.22834" /><line stroke="black" stroke-linecap="square" stroke-width="0.26mm" x1="201.9685" x2="201.9685" y1="223.22834" y2="216.14173" /></g><text font-family="Arial,Helvetica" font-size="8" font-weight="bold" x="17.71654" y="258.66141">Monnaie</text><text font-family="Arial,Helvetica" font-size="8" font-weight="bold" x="60.23622" y="258.66141">Montant</text><text font-family="Arial,Helvetica" font-size="10" x="17.71654" y="276.37795">CHF</text><g><line stroke="black" stroke-linecap="square" stroke-width="0.26mm" x1="106.29921" x2="106.29921" y1="251.5748" y2="258.66141" /><line stroke="black" stroke-linecap="square" stroke-width="0.26mm" x1="106.29921" x2="116.92913" y1="251.5748" y2="251.5748" /><line stroke="black" stroke-linecap="square" stroke-width="0.26mm" x1="106.29921" x2="106.29921" y1="290.55118" y2="283.46457" /><line stroke="black" stroke-linecap="square" stroke-width="0.26mm" x1="106.29921" x2="116.92913" y1="290.55118" y2="290.55118" /><line stroke="black" stroke-linecap="square" stroke-width="0.26mm" x1="191.33858" x2="201.9685" y1="251.5748" y2="251.5748" /><line stroke="black" stroke-linecap="square" stroke-width="0.26mm" x1="201.9685" x2="201.9685" y1="251.5748" y2="258.66141" /><line stroke="black" stroke-linecap="square" stroke-width="0.26mm" x1="191.33858" x2="201.9685" y1="290.55118" y2="290.55118" /><line stroke="black" stroke-linecap="square" stroke-width="0.26mm" x1="201.9685" x2="201.9685" y1="290.55118" y2="283.46457" /></g><text font-family="Arial,Helvetica" font-size="8" font-weight="bold" text-anchor="end" x="201.96849" y="308.26771">Point de dépôt</text><line fill="none" stroke="black" stroke-dasharray="2 2" x1="219.68503" x2="219.68503" y1="3.54331" y2="372.04724" /><path d="m 0.764814,4.283977 c 0.337358,0.143009 0.862476,-0.115279 0.775145,-0.523225 -0.145918,-0.497473 -0.970289,-0.497475 -1.116209,-2e-6 -0.0636,0.23988 0.128719,0.447618 0.341064,0.523227 z m 3.875732,-1.917196 c 1.069702,0.434082 2.139405,0.868164 3.209107,1.302246 -0.295734,0.396158 -0.866482,0.368049 -1.293405,0.239509 -0.876475,-0.260334 -1.71099,-0.639564 -2.563602,-0.966653 -0.132426,-0.04295 -0.265139,-0.124595 -0.397393,-0.144327 -0.549814,0.22297 -1.09134,0.477143 -1.667719,0.62213 -0.07324,0.232838 0.150307,0.589809 -0.07687,0.842328 -0.311347,0.532157 -1.113542,0.624698 -1.561273,0.213165 -0.384914,-0.301216 -0.379442,-0.940948 7e-6,-1.245402 0.216628,-0.191603 0.506973,-0.286636 0.794095,-0.258382 0.496639,0.01219 1.013014,-0.04849 1.453829,-0.289388 0.437126,-0.238777 0.07006,-0.726966 -0.300853,-0.765416 -0.420775,-0.157424 -0.870816,-0.155853 -1.312747,-0.158623 -0.527075,-0.0016 -1.039244,-0.509731 -0.904342,-1.051293 0.137956,-0.620793 0.952738,-0.891064 1.47649,-0.573851 0.371484,0.188118 0.594679,0.675747 0.390321,1.062196 0.09829,0.262762 0.586716,0.204086 0.826177,0.378204 0.301582,0.119237 0.600056,0.246109 0.899816,0.36981 0.89919,-0.349142 1.785653,-0.732692 2.698347,-1.045565 0.459138,-0.152333 1.033472,-0.283325 1.442046,0.05643 0.217451,0.135635 -0.06954,0.160294 -0.174725,0.220936 -0.979101,0.397316 -1.958202,0.794633 -2.937303,1.19195 z m -3.44165,-1.917196 c -0.338434,-0.14399 -0.861225,0.116943 -0.775146,0.524517 0.143274,0.477916 0.915235,0.499056 1.10329,0.04328 0.09674,-0.247849 -0.09989,-0.490324 -0.328144,-0.567796 z" style="fill:#000000;fill-opacity:1;fill-rule:nonzero;stroke:none" transform="scale(1.9) translate(118,40) rotate(90)" /><text font-family="Arial,Helvetica" font-size="12" font-weight="bold" x="237.40157" y="38.97638">Section paiement</text><path d="M0,0H1V1H0zM1,0H2V1H1zM2,0H3V1H2zM3,0H4V1H3zM4,0H5V1H4zM5,0H6V1H5zM6,0H7V1H6zM8,0H9V1H8zM9,0H10V1H9zM10,0H11V1H10zM14,0H15V1H14zM20,0H21V1H20zM21,0H22V1H21zM24,0H25V1H24zM25,0H26V1H25zM26,0H27V1H26zM28,0H29V1H28zM29,0H30V1H29zM30,0H31V1H30zM31,0H32V1H31zM32,0H33V1H32zM33,0H34V1H33zM36,0H37V1H36zM37,0H38V1H37zM40,0H41V1H40zM42,0H43V1H42zM43,0H44V1H43zM44,0H45V1H44zM45,0H46V1H45zM46,0H47V1H46zM47,0H48V1H47zM48,0H49V1H48zM0,1H1V2H0zM6,1H7V2H6zM12,1H13V2H12zM13,1H14V2H13zM17,1H18V2H17zM18,1H19V2H18zM22,1H23V2H22zM25,1H26V2H25zM31,1H32V2H31zM32,1H33V2H32zM33,1H34V2H33zM38,1H39V2H38zM39,1H40V2H39zM40,1H41V2H40zM42,1H43V2H42zM48,1H49V2H48zM0,2H1V3H0zM2,2H3V3H2zM3,2H4V3H3zM4,2H5V3H4zM6,2H7V3H6zM12,2H13V3H12zM13,2H14V3H13zM16,2H17V3H16zM18,2H19V3H18zM20,2H21V3H20zM21,2H22V3H21zM22,2H23V3H22zM23,2H24V3H23zM25,2H26V3H25zM28,2H29V3H28zM31,2H32V3H31zM33,2H34V3H33zM35,2H36V3H35zM39,2H40V3H39zM40,2H41V3H40zM42,2H43V3H42zM44,2H45V3H44zM45,2H46V3H45zM46,2H47V3H46zM48,2H49V3H48zM0,3H1V4H0zM2,3H3V4H2zM3,3H4V4H3zM4,3H5V4H4zM6,3H7V4H6zM8,3H9V4H8zM9,3H10V4H9zM10,3H11V4H10zM11,3H12V4H11zM14,3H15V4H14zM16,3H17V4H16zM18,3H19V4H18zM24,3H25V4H24zM25,3H26V4H25zM28,3H29V4H28zM29,3H30V4H29zM30,3H31V4H30zM31,3H32V4H31zM33,3H34V4H33zM36,3H37V4H36zM39,3H40V4H39zM42,3H43V4H42zM44,3H45V4H44zM45,3H46V4H45zM46,3H47V4H46zM48,3H49V4H48zM0,4H1V5H0zM2,4H3V5H2zM3,4H4V5H3zM4,4H5V5H4zM6,4H7V5H6zM8,4H9V5H8zM9,4H10V5H9zM15,4H16V5H15zM17,4H18V5H17zM18,4H19V5H18zM21,4H22V5H21zM22,4H23V5H22zM23,4H24V5H23zM24,4H25V5H24zM25,4H26V5H25zM26,4H27V5H26zM31,4H32V5H31zM32,4H33V5H32zM35,4H36V5H35zM37,4H38V5H37zM42,4H43V5H42zM44,4H45V5H44zM45,4H46V5H45zM46,4H47V5H46zM48,4H49V5H48zM0,5H1V6H0zM6,5H7V6H6zM8,5H9V6H8zM11,5H12V6H11zM14,5H15V6H14zM15,5H16V6H15zM17,5H18V6H17zM18,5H19V6H18zM19,5H20V6H19zM22,5H23V6H22zM26,5H27V6H26zM28,5H29V6H28zM30,5H31V6H30zM31,5H32V6H31zM34,5H35V6H34zM37,5H38V6H37zM38,5H39V6H38zM42,5H43V6H42zM48,5H49V6H48zM0,6H1V7H0zM1,6H2V7H1zM2,6H3V7H2zM3,6H4V7H3zM4,6H5V7H4zM5,6H6V7H5zM6,6H7V7H6zM8,6H9V7H8zM10,6H11V7H10zM12,6H13V7H12zM14,6H15V7H14zM16,6H17V7H16zM18,6H19V7H18zM20,6H21V7H20zM22,6H23V7H22zM24,6H25V7H24zM26,6H27V7H26zM28,6H29V7H28zM30,6H31V7H30zM32,6H33V7H32zM34,6H35V7H34zM36,6H37V7H36zM38,6H39V7H38zM40,6H41V7H40zM42,6H43V7H42zM43,6H44V7H43zM44,6H45V7H44zM45,6H46V7H45zM46,6H47V7H46zM47,6H48V7H47zM48,6H49V7H48zM8,7H9V8H8zM9,7H10V8H9zM10,7H11V8H10zM13,7H14V8H13zM14,7H15V8H14zM17,7H18V8H17zM19,7H20V8H19zM20,7H21V8H20zM22,7H23V8H22zM26,7H27V8H26zM27,7H28V8H27zM28,7H29V8H28zM29,7H30V8H29zM30,7H31V8H30zM33,7H34V8H33zM34,7H35V8H34zM35,7H36V8H35zM36,7H37V8H36zM38,7H39V8H38zM0,8H1V9H0zM4,8H5V9H4zM6,8H7V9H6zM7,8H8V9H7zM8,8H9V9H8zM11,8H12V9H11zM14,8H15V9H14zM16,8H17V9H16zM18,8H19V9H18zM20,8H21V9H20zM22,8H23V9H22zM23,8H24V9H23zM24,8H25V9H24zM25,8H26V9H25zM26,8H27V9H26zM29,8H30V9H29zM33,8H34V9H33zM35,8H36V9H35zM36,8H37V9H36zM39,8H40V9H39zM41,8H42V9H41zM42,8H43V9H42zM43,8H44V9H43zM44,8H45V9H44zM45,8H46V9H45zM48,8H49V9H48zM2,9H3V10H2zM3,9H4V10H3zM4,9H5V10H4zM7,9H8V10H7zM10,9H11V10H10zM11,9H12V10H11zM12,9H13V10H12zM14,9H15V10H14zM15,9H16V10H15zM16,9H17V10H16zM17,9H18V10H17zM18,9H19V10H18zM20,9H21V10H20zM25,9H26V10H25zM26,9H27V10H26zM27,9H28V10H27zM28,9H29V10H28zM30,9H31V10H30zM35,9H36V10H35zM37,9H38V10H37zM39,9H40V10H39zM41,9H42V10H41zM42,9H43V10H42zM43,9H44V10H43zM44,9H45V10H44zM46,9H47V10H46zM47,9H48V10H47zM1,10H2V11H1zM3,10H4V11H3zM6,10H7V11H6zM8,10H9V11H8zM18,10H19V11H18zM21,10H22V11H21zM22,10H23V11H22zM24,10H25V11H24zM27,10H28V11H27zM28,10H29V11H28zM29,10H30V11H29zM30,10H31V11H30zM32,10H33V11H32zM35,10H36V11H35zM38,10H39V11H38zM39,10H40V11H39zM40,10H41V11H40zM44,10H45V11H44zM45,10H46V11H45zM46,10H47V11H46zM0,11H1V12H0zM1,11H2V12H1zM2,11H3V12H2zM3,11H4V12H3zM4,11H5V12H4zM7,11H8V12H7zM8,11H9V12H8zM9,11H10V12H9zM10,11H11V12H10zM14,11H15V12H14zM16,11H17V12H16zM17,11H18V12H17zM20,11H21V12H20zM22,11H23V12H22zM26,11H27V12H26zM28,11H29V12H28zM29,11H30V12H29zM31,11H32V12H31zM33,11H34V12H33zM34,11H35V12H34zM35,11H36V12H35zM36,11H37V12H36zM39,11H40V12H39zM41,11H42V12H41zM46,11H47V12H46zM48,11H49V12H48zM0,12H1V13H0zM3,12H4V13H3zM4,12H5V13H4zM6,12H7V13H6zM7,12H8V13H7zM8,12H9V13H8zM9,12H10V13H9zM10,12H11V13H10zM11,12H12V13H11zM13,12H14V13H13zM16,12H17V13H16zM18,12H19V13H18zM20,12H21V13H20zM22,12H23V13H22zM23,12H24V13H23zM24,12H25V13H24zM28,12H29V13H28zM30,12H31V13H30zM31,12H32V13H31zM32,12H33V13H32zM37,12H38V13H37zM39,12H40V13H39zM42,12H43V13H42zM43,12H44V13H43zM45,12H46V13H45zM48,12H49V13H48zM5,13H6V14H5zM10,13H11V14H10zM11,13H12V14H11zM12,13H13V14H12zM16,13H17V14H16zM17,13H18V14H17zM18,13H19V14H18zM19,13H20V14H19zM20,13H21V14H20zM24,13H25V14H24zM25,13H26V14H25zM27,13H28V14H27zM29,13H30V14H29zM30,13H31V14H30zM31,13H32V14H31zM32,13H33V14H32zM33,13H34V14H33zM36,13H37V14H36zM37,13H38V14H37zM38,13H39V14H38zM39,13H40V14H39zM42,13H43V14H42zM44,13H45V14H44zM47,13H48V14H47zM48,13H49V14H48zM0,14H1V15H0zM1,14H2V15H1zM2,14H3V15H2zM4,14H5V15H4zM5,14H6V15H5zM6,14H7V15H6zM7,14H8V15H7zM8,14H9V15H8zM10,14H11V15H10zM11,14H12V15H11zM12,14H13V15H12zM13,14H14V15H13zM16,14H17V15H16zM17,14H18V15H17zM19,14H20V15H19zM22,14H23V15H22zM23,14H24V15H23zM24,14H25V15H24zM25,14H26V15H25zM27,14H28V15H27zM28,14H29V15H28zM29,14H30V15H29zM30,14H31V15H30zM31,14H32V15H31zM33,14H34V15H33zM35,14H36V15H35zM37,14H38V15H37zM39,14H40V15H39zM40,14H41V15H40zM42,14H43V15H42zM45,14H46V15H45zM0,15H1V16H0zM1,15H2V16H1zM4,15H5V16H4zM5,15H6V16H5zM12,15H13V16H12zM13,15H14V16H13zM14,15H15V16H14zM17,15H18V16H17zM21,15H22V16H21zM22,15H23V16H22zM23,15H24V16H23zM24,15H25V16H24zM28,15H29V16H28zM29,15H30V16H29zM30,15H31V16H30zM31,15H32V16H31zM32,15H33V16H32zM33,15H34V16H33zM34,15H35V16H34zM35,15H36V16H35zM36,15H37V16H36zM39,15H40V16H39zM41,15H42V16H41zM45,15H46V16H45zM46,15H47V16H46zM48,15H49V16H48zM0,16H1V17H0zM5,16H6V17H5zM6,16H7V17H6zM8,16H9V17H8zM9,16H10V17H9zM12,16H13V17H12zM13,16H14V17H13zM14,16H15V17H14zM17,16H18V17H17zM18,16H19V17H18zM19,16H20V17H19zM21,16H22V17H21zM25,16H26V17H25zM26,16H27V17H26zM27,16H28V17H27zM30,16H31V17H30zM32,16H33V17H32zM35,16H36V17H35zM36,16H37V17H36zM37,16H38V17H37zM38,16H39V17H38zM40,16H41V17H40zM43,16H44V17H43zM44,16H45V17H44zM45,16H46V17H45zM46,16H47V17H46zM48,16H49V17H48zM0,17H1V18H0zM2,17H3V18H2zM3,17H4V18H3zM5,17H6V18H5zM7,17H8V18H7zM8,17H9V18H8zM9,17H10V18H9zM10,17H11V18H10zM12,17H13V18H12zM20,17H21V18H20zM22,17H23V18H22zM23,17H24V18H23zM26,17H27V18H26zM29,17H30V18H29zM30,17H31V18H30zM31,17H32V18H31zM33,17H34V18H33zM36,17H37V18H36zM38,17H39V18H38zM40,17H41V18H40zM44,17H45V18H44zM48,17H49V18H48zM0,18H1V19H0zM2,18H3V19H2zM6,18H7V19H6zM8,18H9V19H8zM11,18H12V19H11zM15,18H16V19H15zM21,18H22V19H21zM22,18H23V19H22zM23,18H24V19H23zM24,18H25V19H24zM26,18H27V19H26zM27,18H28V19H27zM32,18H33V19H32zM33,18H34V19H33zM35,18H36V19H35zM38,18H39V19H38zM44,18H45V19H44zM45,18H46V19H45zM46,18H47V19H46zM8,19H9V20H8zM12,19H13V20H12zM15,19H16V20H15zM16,19H17V20H16zM17,19H18V20H17zM22,19H23V20H22zM23,19H24V20H23zM26,19H27V20H26zM27,19H28V20H27zM29,19H30V20H29zM32,19H33V20H32zM35,19H36V20H35zM38,19H39V20H38zM39,19H40V20H39zM41,19H42V20H41zM43,19H44V20H43zM44,19H45V20H44zM46,19H47V20H46zM47,19H48V20H47zM48,19H49V20H48zM0,20H1V21H0zM1,20H2V21H1zM2,20H3V21H2zM3,20H4V21H3zM5,20H6V21H5zM6,20H7V21H6zM8,20H9V21H8zM9,20H10V21H9zM10,20H11V21H10zM13,20H14V21H13zM15,20H16V21H15zM19,20H20V21H19zM20,20H21V21H20zM21,20H22V21H21zM25,20H26V21H25zM27,20H28V21H27zM30,20H31V21H30zM32,20H33V21H32zM33,20H34V21H33zM35,20H36V21H35zM36,20H37V21H36zM37,20H38V21H37zM41,20H42V21H41zM42,20H43V21H42zM43,20H44V21H43zM44,20H45V21H44zM3,21H4V22H3zM4,21H5V22H4zM8,21H9V22H8zM11,21H12V22H11zM12,21H13V22H12zM16,21H17V22H16zM18,21H19V22H18zM19,21H20V22H19zM23,21H24V22H23zM25,21H26V22H25zM30,21H31V22H30zM31,21H32V22H31zM32,21H33V22H32zM35,21H36V22H35zM37,21H38V22H37zM38,21H39V22H38zM43,21H44V22H43zM46,21H47V22H46zM0,22H1V23H0zM1,22H2V23H1zM4,22H5V23H4zM5,22H6V23H5zM6,22H7V23H6zM7,22H8V23H7zM8,22H9V23H8zM12,22H13V23H12zM13,22H14V23H13zM15,22H16V23H15zM18,22H19V23H18zM19,22H20V23H19zM22,22H23V23H22zM23,22H24V23H23zM24,22H25V23H24zM25,22H26V23H25zM26,22H27V23H26zM27,22H28V23H27zM28,22H29V23H28zM29,22H30V23H29zM33,22H34V23H33zM34,22H35V23H34zM35,22H36V23H35zM36,22H37V23H36zM37,22H38V23H37zM38,22H39V23H38zM39,22H40V23H39zM40,22H41V23H40zM41,22H42V23H41zM42,22H43V23H42zM43,22H44V23H43zM44,22H45V23H44zM2,23H3V24H2zM4,23H5V24H4zM8,23H9V24H8zM9,23H10V24H9zM10,23H11V24H10zM11,23H12V24H11zM12,23H13V24H12zM15,23H16V24H15zM18,23H19V24H18zM22,23H23V24H22zM26,23H27V24H26zM27,23H28V24H27zM28,23H29V24H28zM29,23H30V24H29zM30,23H31V24H30zM33,23H34V24H33zM35,23H36V24H35zM39,23H40V24H39zM40,23H41V24H40zM44,23H45V24H44zM45,23H46V24H45zM47,23H48V24H47zM1,24H2V25H1zM4,24H5V25H4zM6,24H7V25H6zM8,24H9V25H8zM9,24H10V25H9zM10,24H11V25H10zM15,24H16V25H15zM16,24H17V25H16zM17,24H18V25H17zM20,24H21V25H20zM22,24H23V25H22zM24,24H25V25H24zM26,24H27V25H26zM27,24H28V25H27zM30,24H31V25H30zM31,24H32V25H31zM32,24H33V25H32zM34,24H35V25H34zM36,24H37V25H36zM38,24H39V25H38zM40,24H41V25H40zM42,24H43V25H42zM44,24H45V25H44zM46,24H47V25H46zM48,24H49V25H48zM0,25H1V26H0zM2,25H3V26H2zM4,25H5V26H4zM8,25H9V26H8zM9,25H10V26H9zM10,25H11V26H10zM11,25H12V26H11zM12,25H13V26H12zM14,25H15V26H14zM15,25H16V26H15zM16,25H17V26H16zM20,25H21V26H20zM22,25H23V26H22zM26,25H27V26H26zM27,25H28V26H27zM28,25H29V26H28zM29,25H30V26H29zM30,25H31V26H30zM35,25H36V26H35zM36,25H37V26H36zM37,25H38V26H37zM38,25H39V26H38zM40,25H41V26H40zM44,25H45V26H44zM47,25H48V26H47zM48,25H49V26H48zM1,26H2V27H1zM3,26H4V27H3zM4,26H5V27H4zM5,26H6V27H5zM6,26H7V27H6zM7,26H8V27H7zM8,26H9V27H8zM10,26H11V27H10zM11,26H12V27H11zM13,26H14V27H13zM22,26H23V27H22zM23,26H24V27H23zM24,26H25V27H24zM25,26H26V27H25zM26,26H27V27H26zM27,26H28V27H27zM29,26H30V27H29zM30,26H31V27H30zM33,26H34V27H33zM34,26H35V27H34zM35,26H36V27H35zM36,26H37V27H36zM39,26H40V27H39zM40,26H41V27H40zM41,26H42V27H41zM42,26H43V27H42zM43,26H44V27H43zM44,26H45V27H44zM45,26H46V27H45zM46,26H47V27H46zM47,26H48V27H47zM48,26H49V27H48zM0,27H1V28H0zM1,27H2V28H1zM2,27H3V28H2zM3,27H4V28H3zM4,27H5V28H4zM7,27H8V28H7zM9,27H10V28H9zM10,27H11V28H10zM11,27H12V28H11zM12,27H13V28H12zM14,27H15V28H14zM16,27H17V28H16zM20,27H21V28H20zM22,27H23V28H22zM23,27H24V28H23zM27,27H28V28H27zM29,27H30V28H29zM30,27H31V28H30zM31,27H32V28H31zM32,27H33V28H32zM33,27H34V28H33zM35,27H36V28H35zM36,27H37V28H36zM44,27H45V28H44zM46,27H47V28H46zM48,27H49V28H48zM0,28H1V29H0zM1,28H2V29H1zM4,28H5V29H4zM5,28H6V29H5zM6,28H7V29H6zM8,28H9V29H8zM10,28H11V29H10zM12,28H13V29H12zM14,28H15V29H14zM19,28H20V29H19zM20,28H21V29H20zM24,28H25V29H24zM25,28H26V29H25zM27,28H28V29H27zM30,28H31V29H30zM31,28H32V29H31zM36,28H37V29H36zM42,28H43V29H42zM43,28H44V29H43zM46,28H47V29H46zM1,29H2V30H1zM2,29H3V30H2zM5,29H6V30H5zM7,29H8V30H7zM12,29H13V30H12zM13,29H14V30H13zM15,29H16V30H15zM16,29H17V30H16zM18,29H19V30H18zM24,29H25V30H24zM29,29H30V30H29zM30,29H31V30H30zM31,29H32V30H31zM32,29H33V30H32zM33,29H34V30H33zM37,29H38V30H37zM38,29H39V30H38zM42,29H43V30H42zM44,29H45V30H44zM47,29H48V30H47zM48,29H49V30H48zM1,30H2V31H1zM5,30H6V31H5zM6,30H7V31H6zM7,30H8V31H7zM9,30H10V31H9zM10,30H11V31H10zM11,30H12V31H11zM12,30H13V31H12zM14,30H15V31H14zM15,30H16V31H15zM18,30H19V31H18zM20,30H21V31H20zM21,30H22V31H21zM23,30H24V31H23zM26,30H27V31H26zM28,30H29V31H28zM34,30H35V31H34zM35,30H36V31H35zM36,30H37V31H36zM38,30H39V31H38zM39,30H40V31H39zM40,30H41V31H40zM45,30H46V31H45zM46,30H47V31H46zM0,31H1V32H0zM2,31H3V32H2zM5,31H6V32H5zM8,31H9V32H8zM12,31H13V32H12zM14,31H15V32H14zM15,31H16V32H15zM17,31H18V32H17zM19,31H20V32H19zM20,31H21V32H20zM23,31H24V32H23zM26,31H27V32H26zM27,31H28V32H27zM29,31H30V32H29zM31,31H32V32H31zM32,31H33V32H32zM33,31H34V32H33zM38,31H39V32H38zM41,31H42V32H41zM42,31H43V32H42zM46,31H47V32H46zM47,31H48V32H47zM48,31H49V32H48zM1,32H2V33H1zM2,32H3V33H2zM3,32H4V33H3zM4,32H5V33H4zM6,32H7V33H6zM9,32H10V33H9zM10,32H11V33H10zM12,32H13V33H12zM14,32H15V33H14zM15,32H16V33H15zM17,32H18V33H17zM20,32H21V33H20zM21,32H22V33H21zM22,32H23V33H22zM25,32H26V33H25zM26,32H27V33H26zM27,32H28V33H27zM30,32H31V33H30zM32,32H33V33H32zM35,32H36V33H35zM36,32H37V33H36zM37,32H38V33H37zM38,32H39V33H38zM42,32H43V33H42zM44,32H45V33H44zM46,32H47V33H46zM47,32H48V33H47zM0,33H1V34H0zM1,33H2V34H1zM4,33H5V34H4zM5,33H6V34H5zM8,33H9V34H8zM9,33H10V34H9zM10,33H11V34H10zM11,33H12V34H11zM12,33H13V34H12zM13,33H14V34H13zM15,33H16V34H15zM16,33H17V34H16zM17,33H18V34H17zM20,33H21V34H20zM21,33H22V34H21zM23,33H24V34H23zM24,33H25V34H24zM29,33H30V34H29zM30,33H31V34H30zM31,33H32V34H31zM33,33H34V34H33zM36,33H37V34H36zM38,33H39V34H38zM43,33H44V34H43zM47,33H48V34H47zM48,33H49V34H48zM0,34H1V35H0zM6,34H7V35H6zM7,34H8V35H7zM10,34H11V35H10zM14,34H15V35H14zM18,34H19V35H18zM21,34H22V35H21zM23,34H24V35H23zM27,34H28V35H27zM28,34H29V35H28zM29,34H30V35H29zM30,34H31V35H30zM34,34H35V35H34zM35,34H36V35H35zM36,34H37V35H36zM37,34H38V35H37zM39,34H40V35H39zM41,34H42V35H41zM43,34H44V35H43zM47,34H48V35H47zM1,35H2V36H1zM4,35H5V36H4zM5,35H6V36H5zM7,35H8V36H7zM11,35H12V36H11zM12,35H13V36H12zM13,35H14V36H13zM14,35H15V36H14zM15,35H16V36H15zM20,35H21V36H20zM21,35H22V36H21zM22,35H23V36H22zM23,35H24V36H23zM25,35H26V36H25zM28,35H29V36H28zM30,35H31V36H30zM34,35H35V36H34zM35,35H36V36H35zM42,35H43V36H42zM45,35H46V36H45zM46,35H47V36H46zM47,35H48V36H47zM48,35H49V36H48zM2,36H3V37H2zM4,36H5V37H4zM6,36H7V37H6zM7,36H8V37H7zM8,36H9V37H8zM10,36H11V37H10zM11,36H12V37H11zM12,36H13V37H12zM13,36H14V37H13zM19,36H20V37H19zM20,36H21V37H20zM21,36H22V37H21zM23,36H24V37H23zM25,36H26V37H25zM27,36H28V37H27zM30,36H31V37H30zM32,36H33V37H32zM33,36H34V37H33zM36,36H37V37H36zM38,36H39V37H38zM40,36H41V37H40zM43,36H44V37H43zM48,36H49V37H48zM4,37H5V38H4zM5,37H6V38H5zM7,37H8V38H7zM8,37H9V38H8zM9,37H10V38H9zM12,37H13V38H12zM15,37H16V38H15zM16,37H17V38H16zM19,37H20V38H19zM20,37H21V38H20zM21,37H22V38H21zM23,37H24V38H23zM24,37H25V38H24zM25,37H26V38H25zM26,37H27V38H26zM29,37H30V38H29zM30,37H31V38H30zM31,37H32V38H31zM33,37H34V38H33zM34,37H35V38H34zM35,37H36V38H35zM37,37H38V38H37zM38,37H39V38H38zM39,37H40V38H39zM41,37H42V38H41zM43,37H44V38H43zM44,37H45V38H44zM46,37H47V38H46zM48,37H49V38H48zM1,38H2V39H1zM5,38H6V39H5zM6,38H7V39H6zM8,38H9V39H8zM9,38H10V39H9zM13,38H14V39H13zM18,38H19V39H18zM19,38H20V39H19zM21,38H22V39H21zM22,38H23V39H22zM24,38H25V39H24zM25,38H26V39H25zM27,38H28V39H27zM32,38H33V39H32zM33,38H34V39H33zM34,38H35V39H34zM35,38H36V39H35zM41,38H42V39H41zM43,38H44V39H43zM44,38H45V39H44zM47,38H48V39H47zM48,38H49V39H48zM1,39H2V40H1zM2,39H3V40H2zM3,39H4V40H3zM7,39H8V40H7zM13,39H14V40H13zM15,39H16V40H15zM17,39H18V40H17zM18,39H19V40H18zM23,39H24V40H23zM24,39H25V40H24zM25,39H26V40H25zM28,39H29V40H28zM29,39H30V40H29zM30,39H31V40H30zM31,39H32V40H31zM33,39H34V40H33zM35,39H36V40H35zM36,39H37V40H36zM40,39H41V40H40zM45,39H46V40H45zM0,40H1V41H0zM1,40H2V41H1zM2,40H3V41H2zM6,40H7V41H6zM7,40H8V41H7zM8,40H9V41H8zM10,40H11V41H10zM13,40H14V41H13zM14,40H15V41H14zM18,40H19V41H18zM19,40H20V41H19zM22,40H23V41H22zM23,40H24V41H23zM24,40H25V41H24zM25,40H26V41H25zM26,40H27V41H26zM30,40H31V41H30zM31,40H32V41H31zM32,40H33V41H32zM33,40H34V41H33zM34,40H35V41H34zM36,40H37V41H36zM40,40H41V41H40zM41,40H42V41H41zM42,40H43V41H42zM43,40H44V41H43zM44,40H45V41H44zM8,41H9V42H8zM10,41H11V42H10zM11,41H12V42H11zM13,41H14V42H13zM14,41H15V42H14zM20,41H21V42H20zM21,41H22V42H21zM22,41H23V42H22zM26,41H27V42H26zM28,41H29V42H28zM29,41H30V42H29zM30,41H31V42H30zM35,41H36V42H35zM37,41H38V42H37zM38,41H39V42H38zM40,41H41V42H40zM44,41H45V42H44zM46,41H47V42H46zM47,41H48V42H47zM0,42H1V43H0zM1,42H2V43H1zM2,42H3V43H2zM3,42H4V43H3zM4,42H5V43H4zM5,42H6V43H5zM6,42H7V43H6zM8,42H9V43H8zM9,42H10V43H9zM12,42H13V43H12zM13,42H14V43H13zM16,42H17V43H16zM22,42H23V43H22zM24,42H25V43H24zM26,42H27V43H26zM27,42H28V43H27zM28,42H29V43H28zM34,42H35V43H34zM35,42H36V43H35zM38,42H39V43H38zM39,42H40V43H39zM40,42H41V43H40zM42,42H43V43H42zM44,42H45V43H44zM45,42H46V43H45zM46,42H47V43H46zM47,42H48V43H47zM0,43H1V44H0zM6,43H7V44H6zM13,43H14V44H13zM18,43H19V44H18zM20,43H21V44H20zM22,43H23V44H22zM26,43H27V44H26zM27,43H28V44H27zM28,43H29V44H28zM29,43H30V44H29zM32,43H33V44H32zM33,43H34V44H33zM34,43H35V44H34zM35,43H36V44H35zM38,43H39V44H38zM39,43H40V44H39zM40,43H41V44H40zM44,43H45V44H44zM46,43H47V44H46zM47,43H48V44H47zM48,43H49V44H48zM0,44H1V45H0zM2,44H3V45H2zM3,44H4V45H3zM4,44H5V45H4zM6,44H7V45H6zM8,44H9V45H8zM11,44H12V45H11zM12,44H13V45H12zM15,44H16V45H15zM16,44H17V45H16zM20,44H21V45H20zM22,44H23V45H22zM23,44H24V45H23zM24,44H25V45H24zM25,44H26V45H25zM26,44H27V45H26zM28,44H29V45H28zM30,44H31V45H30zM31,44H32V45H31zM34,44H35V45H34zM36,44H37V45H36zM40,44H41V45H40zM41,44H42V45H41zM42,44H43V45H42zM43,44H44V45H43zM44,44H45V45H44zM45,44H46V45H45zM48,44H49V45H48zM0,45H1V46H0zM2,45H3V46H2zM3,45H4V46H3zM4,45H5V46H4zM6,45H7V46H6zM11,45H12V46H11zM13,45H14V46H13zM17,45H18V46H17zM18,45H19V46H18zM19,45H20V46H19zM20,45H21V46H20zM22,45H23V46H22zM25,45H26V46H25zM26,45H27V46H26zM28,45H29V46H28zM29,45H30V46H29zM30,45H31V46H30zM32,45H33V46H32zM35,45H36V46H35zM36,45H37V46H36zM37,45H38V46H37zM39,45H40V46H39zM42,45H43V46H42zM43,45H44V46H43zM44,45H45V46H44zM46,45H47V46H46zM48,45H49V46H48zM0,46H1V47H0zM2,46H3V47H2zM3,46H4V47H3zM4,46H5V47H4zM6,46H7V47H6zM9,46H10V47H9zM10,46H11V47H10zM11,46H12V47H11zM12,46H13V47H12zM17,46H18V47H17zM18,46H19V47H18zM19,46H20V47H19zM21,46H22V47H21zM22,46H23V47H22zM23,46H24V47H23zM26,46H27V47H26zM27,46H28V47H27zM29,46H30V47H29zM30,46H31V47H30zM31,46H32V47H31zM34,46H35V47H34zM36,46H37V47H36zM37,46H38V47H37zM38,46H39V47H38zM40,46H41V47H40zM45,46H46V47H45zM46,46H47V47H46zM47,46H48V47H47zM0,47H1V48H0zM6,47H7V48H6zM14,47H15V48H14zM15,47H16V48H15zM16,47H17V48H16zM18,47H19V48H18zM21,47H22V48H21zM22,47H23V48H22zM23,47H24V48H23zM28,47H29V48H28zM29,47H30V48H29zM30,47H31V48H30zM31,47H32V48H31zM32,47H33V48H32zM33,47H34V48H33zM34,47H35V48H34zM35,47H36V48H35zM36,47H37V48H36zM39,47H40V48H39zM40,47H41V48H40zM41,47H42V48H41zM42,47H43V48H42zM43,47H44V48H43zM46,47H47V48H46zM47,47H48V48H47zM0,48H1V49H0zM1,48H2V49H1zM2,48H3V49H2zM3,48H4V49H3zM4,48H5V49H4zM5,48H6V49H5zM6,48H7V49H6zM8,48H9V49H8zM10,48H11V49H10zM11,48H12V49H11zM13,48H14V49H13zM14,48H15V49H14zM16,48H17V49H16zM17,48H18V49H17zM18,48H19V49H18zM19,48H20V49H19zM21,48H22V49H21zM24,48H25V49H24zM25,48H26V49H25zM27,48H28V49H27zM30,48H31V49H30zM32,48H33V49H32zM34,48H35V49H34zM35,48H36V49H35zM36,48H37V49H36zM37,48H38V49H37zM38,48H39V49H38zM40,48H41V49H40zM41,48H42V49H41zM42,48H43V49H42zM45,48H46V49H45zM47,48H48V49H47zM48,48H49V49H48z" style="fill:#000000;fill-opacity:1;fill-rule:nonzero;stroke:none" transform="translate(237.40157,61) scale(3.311907346938775)" /><g id="swiss-cross" transform="translate(305.4890105263158,129.0874405263158) scale(1.305428947368421)"><polygon fill="black" points="18.3,0.7 1.6,0.7 0.7,0.7 0.7,1.6 0.7,18.3 0.7,19.1 1.6,19.1 18.3,19.1 19.1,19.1 19.1,18.3 19.1,1.6 19.1,0.7" /><rect fill="white" height="11" width="3.3" x="8.3" y="4" /><rect fill="white" height="3.3" width="11" x="4.4" y="7.9" /><polygon fill="none" points="0.7,1.6 0.7,18.3 0.7,19.1 1.6,19.1 18.3,19.1 19.1,19.1 19.1,18.3 19.1,1.6 19.1,0.7 18.3,0.7 1.6,0.7 0.7,0.7" stroke="white" stroke-width="1.4357" /></g><text font-family="Arial,Helvetica" font-size="9" font-weight="bold" x="237.40157" y="258.66141">Monnaie</text><text font-family="Arial,Helvetica" font-size="9" font-weight="bold" x="279.92125" y="258.66141">Montant</text><text font-family="Arial,Helvetica" font-size="10" x="237.40157" y="276.37795">CHF</text><g><line stroke="black" stroke-linecap="square" stroke-width="0.26mm" x1="279.92125" x2="279.92125" y1="269.29133" y2="276.37794" /><line stroke="black" stroke-linecap="square" stroke-width="0.26mm" x1="279.92125" x2="290.55117" y1="269.29133" y2="269.29133" /><line stroke="black" stroke-linecap="square" stroke-width="0.26mm" x1="279.92125" x2="279.92125" y1="322.44094" y2="315.35433" /><line stroke="black" stroke-linecap="square" stroke-width="0.26mm" x1="279.92125" x2="290.55117" y1="322.44094" y2="322.44094" /><line stroke="black" stroke-linecap="square" stroke-width="0.26mm" x1="411.02361" x2="421.65353" y1="269.29133" y2="269.29133" /><line stroke="black" stroke-linecap="square" stroke-width="0.26mm" x1="421.65353" x2="421.65353" y1="269.29133" y2="276.37794" /><line stroke="black" stroke-linecap="square" stroke-width="0.26mm" x1="411.02361" x2="421.65353" y1="322.44094" y2="322.44094" /><line stroke="black" stroke-linecap="square" stroke-width="0.26mm" x1="421.65353" x2="421.65353" y1="322.44094" y2="315.35433" /></g><text font-family="Arial,Helvetica" font-size="9" font-weight="bold" x="418.11023" y="38.97638">Compte / Payable à</text><text font-family="Arial,Helvetica" font-size="10" x="418.11023" y="51.37795">CH11 8080 8006 8235 9023 0</text><text font-family="Arial,Helvetica" font-size="10" x="418.11023" y="63.77953">Groupe Scout de l'Abbaye</text><text font-family="Arial,Helvetica" font-size="10" x="418.11023" y="76.1811">Charcottet 10</text><text font-family="Arial,Helvetica" font-size="10" x="418.11023" y="88.58267">CH-2022 Bevaix</text><text font-family="Arial,Helvetica" font-size="9" font-weight="bold" x="418.11023" y="111.61417">Payable par (nom/adresse)</text><g><line stroke="black" stroke-linecap="square" stroke-width="0.26mm" x1="418.11023" x2="418.11023" y1="124.01574" y2="131.10235" /><line stroke="black" stroke-linecap="square" stroke-width="0.26mm" x1="418.11023" x2="428.74015" y1="124.01574" y2="124.01574" /><line stroke="black" stroke-linecap="square" stroke-width="0.26mm" x1="418.11023" x2="418.11023" y1="212.59841" y2="205.5118" /><line stroke="black" stroke-linecap="square" stroke-width="0.26mm" x1="418.11023" x2="428.74015" y1="212.59841" y2="212.59841" /><line stroke="black" stroke-linecap="square" stroke-width="0.26mm" x1="637.79526" x2="648.42518" y1="124.01574" y2="124.01574" /><line stroke="black" stroke-linecap="square" stroke-width="0.26mm" x1="648.42518" x2="648.42518" y1="124.01574" y2="131.10235" /><line stroke="black" stroke-linecap="square" stroke-width="0.26mm" x1="637.79526" x2="648.42518" y1="212.59841" y2="212.59841" /><line stroke="black" stroke-linecap="square" stroke-width="0.26mm" x1="648.42518" x2="648.42518" y1="212.59841" y2="205.5118" /></g></g></svg>